<?xml version="1.0" encoding="UTF-8"?>
<svg width="45.062mm" height="19.924mm" version="1.1" viewBox="0 0 45.062 19.924" xmlns="http://www.w3.org/2000/svg">
 <path d="m31.095 4.0825c-0.7028 6.8e-5 -1.5599 0.22049-2.2076 0.66146-0.64768 0.43408-1.1197 1.0129-1.4159 1.7363-0.29628 0.72347-0.46164 1.8638-0.49609 3.421h2.7905v-1.633c0.02069-0.66835 0.13498-1.2532 0.34995-1.5867 0.18191-0.34038 0.46207-0.46747 1.2722-0.46747 0.77593 0 1.0747 0.22893 1.247 0.53899 0.17226 0.31006 0.33486 0.84112 0.33486 1.5301l-0.0186 1.618c-0.0048 0.16369-0.01926 0.31794-0.04134 0.46354-0.02019 0.11425-0.04113 0.21925-0.06305 0.31316-0.23212 0.90641-0.81211 1.408-1.4051 1.4021-0.05734-5.29e-4 -0.09495 1.41e-4 -0.17673 4e-3 -0.32775 0.01315-0.68137-0.01921-1.109-0.0078v3.6313h3.1316v-1.7983c0.13156-0.06916 0.2568-0.14209 0.37672-0.21859 0.39718-0.21559 0.74677-0.49692 1.0129-0.84388 0.7028-0.9164 1.0542-2.1807 1.0542-3.7931 0-1.5021-0.3514-2.7044-1.0542-3.607-0.7028-0.9095-1.9-1.3644-3.0644-1.3643zm0.71468 12.452c-0.46853 0-0.87161 0.16881-1.2092 0.50643-0.33762 0.33073-0.50643 0.72692-0.50643 1.1886 0 0.46165 0.16881 0.86127 0.50643 1.1989 0.33762 0.33073 0.7407 0.49609 1.2092 0.49609 0.47542 0 0.8785-0.16536 1.2092-0.49609 0.33762-0.33073 0.50643-0.73036 0.50643-1.1989 0-0.4892-0.16192-0.89228-0.48576-1.2092-0.32384-0.32384-0.73381-0.48576-1.2299-0.48576z" fill="#008000" stroke-width=".26458"/>
 <g transform="translate(-115.84 -181.36)" fill="#046307" stroke-width=".26458" aria-label="Wy! e">
  <path d="m115.84 181.36h3.0076l1.7777 8.3199h0.0413l1.6123-8.3199h2.7285l1.633 8.2269h0.0414l1.695-8.2269h3.0903l-3.3073 13.798h-2.8319l-1.3126-6.1702q-0.21704-1.0129-0.36174-1.9534h-0.0413q-0.25838 1.602-0.37207 2.1394l-1.3022 5.9841h-2.7905z"/>
  <path transform="matrix(.26458 0 0 .26458 115.84 181.36)" d="m60.625 16.211 11.445 35.469-4.6094 15.273h0.0039l-2.5156 8.3398h11.328l2.8555-9.4648h-0.0039l14.973-49.617h-11.367l-3.7891 12.539c-0.39061 1.3021-1.0807 3.4505-1.6797 6.4453-0.72918-3.1511-1.5885-6.3672-2.5781-9.6484l-2.8516-9.3359z" stroke-width="1"/>
  <path d="m142.6 181.36h3.0076v9.9012h-3.0076zm-0.19637 12.444q0-0.7028 0.50643-1.1989 0.50643-0.4961 1.2092-0.4961t1.2092 0.50643q0.50643 0.4961 0.50643 1.1886 0 0.71314-0.50643 1.2196-0.50643 0.49609-1.2092 0.49609-0.71314 0-1.2196-0.49609-0.49609-0.50643-0.49609-1.2196z"/>
  <path d="m158.11 192.26h2.5322q-0.72347 3.2039-3.6174 3.2039-1.8087 0-2.8629-1.3746-1.0542-1.3746-1.0542-3.7931 0-2.2531 1.0542-3.607 1.0542-1.3643 2.8009-1.3643 1.0542 0 2.0257 0.66146 0.97152 0.65112 1.4159 1.7363t0.49609 3.421h-5.0126q0.062 2.1187 1.1782 2.1187 0.38241 0 0.68213-0.27905 0.29973-0.27905 0.36174-0.72347zm-2.1808-2.7492h2.1808q-0.031-1.0025-0.27905-1.478-0.24805-0.48576-0.78549-0.48576-0.59944 0-0.85783 0.46509-0.25838 0.46509-0.25838 1.4986z"/>
 </g>
</svg>
