<?xml version="1.0" encoding="UTF-8" standalone="no"?>
<!-- Created with Inkscape (http://www.inkscape.org/) -->

<svg
   width="45.06192mm"
   height="19.924416mm"
   viewBox="0 0 45.06192 19.924416"
   version="1.1"
   id="svg5"
   inkscape:version="1.1.1 (3bf5ae0d25, 2021-09-20)"
   sodipodi:docname="black.svg"
   xmlns:inkscape="http://www.inkscape.org/namespaces/inkscape"
   xmlns:sodipodi="http://sodipodi.sourceforge.net/DTD/sodipodi-0.dtd"
   xmlns="http://www.w3.org/2000/svg"
   xmlns:svg="http://www.w3.org/2000/svg">
  <sodipodi:namedview
     id="namedview7"
     pagecolor="#ffffff"
     bordercolor="#111111"
     borderopacity="1"
     inkscape:pageshadow="0"
     inkscape:pageopacity="0"
     inkscape:pagecheckerboard="1"
     inkscape:document-units="mm"
     showgrid="false"
     fit-margin-top="0"
     fit-margin-left="0"
     fit-margin-right="0"
     fit-margin-bottom="0"
     inkscape:zoom="2.8284272"
     inkscape:cx="103.59114"
     inkscape:cy="47.906483"
     inkscape:window-width="1920"
     inkscape:window-height="1057"
     inkscape:window-x="1912"
     inkscape:window-y="-8"
     inkscape:window-maximized="1"
     inkscape:current-layer="svg5" />
  <defs
     id="defs2" />
  <path
     id="path18203-3"
     style="font-weight:bold;font-size:21.1667px;line-height:1.25;font-family:'Tw Cen MT Condensed Extra Bold';-inkscape-font-specification:'Tw Cen MT Condensed Extra Bold,  Bold';fill:#4d4d4d;stroke-width:0.264583"
     d="m 31.095033,4.082489 c -0.702802,6.8e-5 -1.559939,0.220488 -2.207617,0.661459 -0.647682,0.43408 -1.119656,1.012859 -1.415937,1.736328 -0.296277,0.723471 -0.461642,1.863799 -0.496093,3.42098 h 2.790528 V 8.268279 c 0.02069,-0.668348 0.134977,-1.253178 0.349948,-1.586663 0.181907,-0.340379 0.462066,-0.467474 1.27216,-0.467474 0.775927,0 1.074709,0.228926 1.246968,0.538986 0.17226,0.31006 0.334862,0.841118 0.334862,1.530137 l -0.0186,1.617991 c -0.0048,0.163692 -0.01926,0.317937 -0.04134,0.463537 -0.02019,0.114252 -0.04113,0.219247 -0.06305,0.313158 -0.232119,0.906412 -0.812106,1.407996 -1.405083,1.402114 -0.05734,-5.29e-4 -0.09495,1.41e-4 -0.176731,0.004 -0.32775,0.01315 -0.681373,-0.01921 -1.108977,-0.0078 v 3.631303 h 3.131593 V 13.90923 c 0.131564,-0.06916 0.256796,-0.142087 0.376719,-0.218594 0.397181,-0.215593 0.746773,-0.496922 1.012859,-0.843875 0.702799,-0.9164 1.054198,-2.180749 1.054198,-3.793051 0,-1.502068 -0.351399,-2.704404 -1.054198,-3.607014 -0.7028,-0.9095 -1.899973,-1.364372 -3.064412,-1.364258 z m 0.714684,12.451953 c -0.468529,0 -0.871609,0.16881 -1.209228,0.506429 -0.337621,0.330731 -0.506431,0.726918 -0.506431,1.188558 0,0.46165 0.16881,0.861274 0.506431,1.198893 0.337619,0.330729 0.740699,0.496094 1.209228,0.496094 0.475419,0 0.878499,-0.165365 1.209228,-0.496094 0.337622,-0.330729 0.506428,-0.730363 0.506428,-1.198893 0,-0.489199 -0.161917,-0.892278 -0.485756,-1.209228 -0.323842,-0.323839 -0.733811,-0.485759 -1.2299,-0.485759 z"
     sodipodi:nodetypes="scsccccssccccsccccccsscssscscscscs" />
  <g
     aria-label="?"
     id="text9926"
     style="font-size:21.1667px;line-height:1.25;font-family:'Tw Cen MT Condensed Extra Bold';-inkscape-font-specification:'Tw Cen MT Condensed Extra Bold, ';fill:#333333;stroke-width:0.264583"
     transform="translate(-116.16864,-181.24381)" />
  <g
     aria-label="Wy! e"
     id="text7610"
     style="font-weight:bold;font-size:21.1667px;line-height:1.25;font-family:'Tw Cen MT Condensed Extra Bold';-inkscape-font-specification:'Tw Cen MT Condensed Extra Bold,  Bold';stroke-width:0.264583;fill:#1a1a1a"
     transform="translate(-115.83915,-181.36407)">
    <path
       d="m 115.83915,181.36407 h 3.00758 l 1.77767,8.31992 h 0.0413 l 1.61231,-8.31992 h 2.72852 l 1.63297,8.2269 h 0.0414 l 1.69498,-8.2269 h 3.09026 l -3.3073,13.79763 h -2.83187 l -1.31258,-6.17018 q -0.21704,-1.01286 -0.36174,-1.95337 h -0.0413 q -0.25838,1.60197 -0.37207,2.13941 l -1.30225,5.98414 h -2.79053 z"
       id="path18197"
       style="fill:#1a1a1a" />
    <path
       id="path18199"
       style="stroke-width:0.999999;fill:#1a1a1a"
       d="m 60.625,16.210938 11.445312,35.46875 -4.609374,15.273437 h 0.0039 l -2.515625,8.339844 h 11.328125 l 2.855468,-9.464844 h -0.0039 L 94.101562,16.210938 H 82.734375 L 78.945312,28.75 c -0.390614,1.302085 -1.080745,3.450528 -1.679687,6.445312 C 76.536441,32.044245 75.677094,28.82811 74.6875,25.546875 l -2.851562,-9.335937 z"
       transform="matrix(0.26458333,0,0,0.26458333,115.83915,181.36407)" />
    <path
       d="m 142.59725,181.36407 h 3.00757 v 9.90122 h -3.00757 z m -0.19637,12.4437 q 0,-0.7028 0.50643,-1.19889 0.50643,-0.4961 1.20923,-0.4961 0.7028,0 1.20923,0.50643 0.50643,0.4961 0.50643,1.18856 0,0.71314 -0.50643,1.21957 -0.50643,0.49609 -1.20923,0.49609 -0.71314,0 -1.21957,-0.49609 -0.49609,-0.50643 -0.49609,-1.21957 z"
       id="path18201"
       style="fill:#1a1a1a" />
    <path
       d="m 158.11054,192.25748 h 2.53215 q -0.72347,3.20394 -3.61736,3.20394 -1.80868,0 -2.86288,-1.37459 -1.0542,-1.3746 -1.0542,-3.79306 0,-2.2531 1.0542,-3.60702 1.0542,-1.36426 2.80087,-1.36426 1.0542,0 2.02572,0.66146 0.97152,0.65112 1.41594,1.73633 0.44442,1.08521 0.49609,3.42098 h -5.01262 q 0.062,2.11874 1.17822,2.11874 0.38241,0 0.68213,-0.27905 0.29973,-0.27905 0.36174,-0.72347 z m -2.18075,-2.74919 h 2.18075 q -0.031,-1.00253 -0.27905,-1.47795 -0.24805,-0.48576 -0.78549,-0.48576 -0.59944,0 -0.85783,0.46509 -0.25838,0.46509 -0.25838,1.49862 z"
       id="path18203"
       style="fill:#1a1a1a" />
  </g>
  <g
     inkscape:label="Layer 1"
     inkscape:groupmode="layer"
     id="layer1"
     transform="translate(-115.83915,-181.36407)" />
</svg>
